:SAMPLES-PER-SECOND 30
:FULLY-SPECIFIED
:DEGREES
782
root  32.5628 38.6486 25.6691 170.866 49.7221 174.542
RightUpLeg  -13.7539 -9.21309 -10.4524
RightLeg  -3.50871 19.0405 -4.05533
RightFoot  -1.70409 -1.1519 13.5477
RightToes  5.23868e-010 0 -3.6325e-017
Spine  7.01619 -0.0132138 0.464043
Spine1  8.36656 1.29471 -5.67686
HEad  -24.5673 27.9951 -19.6261
LeftShoulder1  -0.174002 3.96105 -31.9765
LeftArm  2.9544 6.973 -37.9942
LeftForeArm  16.8064 -28.5944 -5.25137
LeftHand  -0.0797706 1.63135 2.19872
RightShoulder  -0.295493 -4.39217 26.0854
RightArm  12.5369 -3.37008 46.1146
RightForeArm  1.76259 10.5918 6.62729
RightHand  -0.59394 2.54645 -8.88074
LeftUpLeg  6.32611 5.0885 -6.09574
LeftLeg  16.1445 -15.5468 -4.26337
LeftFoot  -14.2689 0.412197 12.6955
LeftToes  -4.9204e-010 1.02043e-011 -1.81609e-011
783
root  33.6282 38.5048 25.3729 170.91 47.2352 174.385
RightUpLeg  -12.9757 -9.82063 -10.8359
RightLeg  -3.67469 19.3371 -3.2986
RightFoot  -3.24184 -1.11586 15.3088
RightToes  5.23868e-010 0 -3.6325e-017
Spine  6.76911 0.243256 0.879668
Spine1  8.59903 1.5539 -5.63527
HEad  -23.3985 26.5935 -18.929
LeftShoulder1  -0.131679 3.84263 -32.0446
LeftArm  3.39184 7.25697 -37.3612
LeftForeArm  13.5669 -24.3294 -4.61056
LeftHand  -0.0604018 2.54909 2.04979
RightShoulder  -0.37243 -4.60868 26.4353
RightArm  11.3665 -3.9566 45.9032
RightForeArm  4.34777 9.70867 6.3714
RightHand  -0.489407 2.08673 -7.78774
LeftUpLeg  7.78752 4.68856 -5.48351
LeftLeg  16.5721 -17.7007 -4.40486
LeftFoot  -15.8545 0.58303 12.3479
LeftToes  -4.9204e-010 1.02043e-011 -1.81609e-011
784
root  34.6977 38.4444 25.0539 171.969 45.1465 175.297
RightUpLeg  -12.4415 -8.94516 -9.7873
RightLeg  -2.04358 19.0534 -3.18125
RightFoot  0.809488 -1.51911 14.3592
RightToes  5.23868e-010 0 -3.6325e-017
Spine  5.92631 0.305684 3.23707
Spine1  9.49876 2.12002 -7.10228
HEad  -22.4196 25.3031 -17.6606
LeftShoulder1  0.0425132 3.38839 -30.2425
LeftArm  0.949561 8.27075 -37.8437
LeftForeArm  12.8278 -19.5349 -4.80381
LeftHand  -0.0695128 3.51308 3.19939
RightShoulder  -0.584511 -5.17821 28.2006
RightArm  11.24 -3.44551 45.2257
RightForeArm  4.94127 8.47935 6.47027
RightHand  -0.490911 2.0971 -7.77405
LeftUpLeg  9.27955 3.31084 -4.43788
LeftLeg  16.0946 -18.7227 -3.71455
LeftFoot  -17.0912 0.674899 11.3306
LeftToes  -4.9204e-010 1.02043e-011 -1.81609e-011
785
root  35.7365 38.4214 24.6962 173.216 42.8812 176.685
RightUpLeg  -12.0217 -8.44273 -8.68698
RightLeg  -0.467072 19.491 -2.6443
RightFoot  7.75797 -2.23046 13.4848
RightToes  5.23868e-010 0 -3.6325e-017
Spine  5.8721 0.150018 4.92296
Spine1  9.28163 1.7926 -6.08948
HEad  -21.0513 24.948 -17.692
LeftShoulder1  -0.0746985 3.70267 -31.4442
LeftArm  -3.0756 9.32392 -35.743
LeftForeArm  14.8703 -15.159 -5.99396
LeftHand  -0.0583972 3.80904 3.13702
RightShoulder  -0.488346 -4.92306 27.5611
RightArm  10.3358 -3.90804 45.6668
RightForeArm  3.93196 7.52302 6.27607
RightHand  -0.627465 2.45046 -9.49888
LeftUpLeg  10.7882 -0.768845 -3.93133
LeftLeg  15.5079 -16.7451 -2.36247
LeftFoot  -17.8943 0.716488 10.608
LeftToes  -4.9204e-010 1.02043e-011 -1.81609e-011
786
root  36.7157 38.3809 24.2825 174.64 40.8337 178.658
RightUpLeg  -11.6103 -8.6401 -7.80784
RightLeg  2.84034 17.9699 -0.773307
RightFoot  7.73772 -2.27253 13.7635
RightToes  5.23868e-010 0 -3.6325e-017
Spine  6.06067 -0.166071 8.48317
Spine1  8.93392 1.82096 -6.8416
HEad  -19.7869 24.6228 -17.3167
LeftShoulder1  -0.119728 3.81804 -32.0174
LeftArm  -5.31897 10.7538 -34.1803
LeftForeArm  15.8104 -11.6544 -6.69644
LeftHand  -0.0241584 5.4895 3.76255
RightShoulder  -0.514201 -5.00839 27.3529
RightArm  9.70507 -4.42239 45.9955
RightForeArm  4.25189 7.41133 6.05744
RightHand  -0.625009 2.68366 -9.17029
LeftUpLeg  11.5646 -8.10675 -3.72068
LeftLeg  16.9518 -10.8498 -1.90115
LeftFoot  -18.7509 0.718583 9.33526
LeftToes  -4.9204e-010 1.02043e-011 -1.81609e-011
787
root  37.5882 38.42 23.8737 176.455 39.3777 -179.269
RightUpLeg  -11.4962 -9.1773 -6.79613
RightLeg  5.72743 16.4845 1.44172
RightFoot  4.95994 -1.84508 13.0949
RightToes  5.23868e-010 0 -3.6325e-017
Spine  5.92407 -0.13252 13.1435
Spine1  8.80032 2.50676 -8.47243
HEad  -18.7824 23.5425 -17.1666
LeftShoulder1  -0.0454807 3.62366 -31.7056
LeftArm  -7.35566 12.4536 -34.28
LeftForeArm  17.4804 -8.90455 -6.57858
LeftHand  0.000561111 6.41629 3.48876
RightShoulder  -0.564595 -5.14604 27.6076
RightArm  10.2339 -4.01655 45.2864
RightForeArm  4.02264 7.44731 6.20587
RightHand  -0.491957 1.75149 -8.17334
LeftUpLeg  10.7246 -13.7991 -2.75462
LeftLeg  20.5195 -5.86235 -2.26775
LeftFoot  -18.5161 0.529444 6.66597
LeftToes  -4.9204e-010 1.02043e-011 -1.81609e-011
788
root  38.4418 38.4842 23.5651 178.1 36.8247 -177.729
RightUpLeg  -10.9752 -9.30803 -5.82055
RightLeg  7.1886 14.1039 2.24117
RightFoot  2.81788 -1.59074 12.8918
RightToes  5.23868e-010 0 -3.6325e-017
Spine  5.54326 -0.200301 15.5731
Spine1  8.73194 2.51221 -7.92908
HEad  -17.8456 22.5279 -16.8588
LeftShoulder1  -0.0227857 3.5663 -31.0179
LeftArm  -7.85358 14.7294 -35.3661
LeftForeArm  18.3173 -7.79146 -6.3458
LeftHand  0.0119975 6.91467 3.0799
RightShoulder  -0.562597 -5.13314 27.7205
RightArm  10.6954 -3.21649 44.51
RightForeArm  3.67529 7.68698 6.3666
RightHand  -0.500145 1.84302 -8.18852
LeftUpLeg  7.62058 -13.766 0.00617067
LeftLeg  26.5896 -7.06205 -3.50799
LeftFoot  -16.9947 0.243919 2.73035
LeftToes  -4.9204e-010 1.02043e-011 -1.81609e-011
789
root  39.2294 38.562 23.3048 178.812 33.746 -177.329
RightUpLeg  -10.5708 -9.71454 -5.427
RightLeg  8.85162 11.7864 2.68849
RightFoot  1.5405 -1.20712 10.7592
RightToes  5.23868e-010 0 -3.6325e-017
Spine  6.00402 -0.279638 16.1021
Spine1  7.6425 2.19589 -6.05414
HEad  -16.2279 21.4617 -16.2426
LeftShoulder1  -0.0359462 3.59865 -30.2862
LeftArm  -7.42694 17.3766 -36.4809
LeftForeArm  19.9947 -7.931 -6.47319
LeftHand  -0.0313009 5.35873 0.768567
RightShoulder  -0.475547 -4.89704 27.2184
RightArm  11.8019 -2.81742 43.5894
RightForeArm  2.86713 8.42073 6.6805
RightHand  -0.556259 2.29291 -8.60029
LeftUpLeg  3.6345 -13.0418 2.09907
LeftLeg  33.37 -7.55014 -4.98089
LeftFoot  -13.1348 0.0617082 -1.49777
LeftToes  -4.9204e-010 1.02043e-011 -1.81609e-011
790
root  39.9766 38.6238 23.0653 179.206 30.7301 -177.204
RightUpLeg  -9.82415 -10.2586 -5.25957
RightLeg  9.9045 9.41527 2.96953
RightFoot  0.137821 -0.984558 9.80308
RightToes  5.23868e-010 0 -3.6325e-017
Spine  6.04696 -0.027315 17.7116
Spine1  7.50581 2.78183 -6.43056
HEad  -15.3537 19.0603 -14.8179
LeftShoulder1  0.157519 3.05985 -29.1861
LeftArm  -5.72024 18.6511 -37.1189
LeftForeArm  20.5584 -8.75077 -7.14597
LeftHand  -0.0266746 5.30028 0.193031
RightShoulder  -0.636232 -5.33461 28.0594
RightArm  12.5469 -2.37852 42.0803
RightForeArm  1.98215 9.99522 6.62284
RightHand  -0.539656 2.78206 -7.87955
LeftUpLeg  -1.15127 -11.4236 3.80285
LeftLeg  40.6335 -6.34841 -5.40242
LeftFoot  -6.83846 0.172116 -3.5963
LeftToes  -4.9204e-010 1.02043e-011 -1.81609e-011
791
root  40.6802 38.6928 22.8016 179.059 28.3625 -176.916
RightUpLeg  -8.15647 -10.5818 -4.99368
RightLeg  10.2307 7.3838 3.14631
RightFoot  -1.50301 -0.849966 9.7142
RightToes  5.23868e-010 0 -3.6325e-017
Spine  7.04136 0.129381 19.195
Spine1  6.9158 3.28623 -6.87977
HEad  -15.1402 17.1601 -14.1812
LeftShoulder1  0.127598 3.14757 -29.8293
LeftArm  -3.36916 19.8279 -36.5207
LeftForeArm  21.9418 -11.185 -7.25337
LeftHand  -0.0182771 4.82812 -1.13881
RightShoulder  -0.579948 -5.19505 27.5056
RightArm  12.5334 -2.23177 41.7084
RightForeArm  1.15073 11.4109 6.30353
RightHand  -0.555433 3.04696 -7.87973
LeftUpLeg  -4.87872 -9.30958 4.81739
LeftLeg  46.5662 -3.19412 -3.16694
LeftFoot  -0.320025 0.274234 -2.89824
LeftToes  -4.9204e-010 1.02043e-011 -1.81609e-011
792
root  41.3006 38.735 22.5477 178.761 26.2933 -177.001
RightUpLeg  -7.13707 -11.0655 -4.98974
RightLeg  11.348 6.03785 3.35988
RightFoot  -2.94953 -0.659023 8.70056
RightToes  5.23868e-010 0 -3.6325e-017
Spine  8.03268 0.193548 20.6351
Spine1  6.39597 3.83967 -7.71715
HEad  -14.6444 16.3082 -13.4392
LeftShoulder1  0.00162786 3.5002 -30.4128
LeftArm  -1.43782 20.6815 -36.4608
LeftForeArm  21.7819 -13.6038 -6.76632
LeftHand  -0.0208859 5.25021 -1.78461
RightShoulder  -0.469788 -4.89793 26.8432
RightArm  13.8926 -0.992746 41.4927
RightForeArm  -0.633327 11.4174 6.75343
RightHand  -0.571535 2.41379 -8.68541
LeftUpLeg  -8.01993 -6.65164 5.04886
LeftLeg  50.7287 0.0408299 0.466735
LeftFoot  1.98064 0.108459 -0.975798
LeftToes  -4.9204e-010 1.02043e-011 -1.81609e-011
